<svg width="85" height="85" viewBox="0 0 85 85" fill="none" xmlns="http://www.w3.org/2000/svg">
<path d="M32.0376 35.8442C32.0376 35.3327 32.4523 34.918 32.9638 34.918C33.4753 34.918 33.8899 35.3326 33.8899 35.8442V79.0106C33.8899 79.5221 33.4753 79.9368 32.9638 79.9368C32.4523 79.9368 32.0376 79.5221 32.0376 79.0106V35.8442Z" fill="#FFBA08" stroke="#FFBA08"/>
<path d="M38.5 35.8442C38.5 35.3327 38.9147 34.918 39.4262 34.918C39.9377 34.918 40.3524 35.3326 40.3524 35.8442V79.0106C40.3524 79.5221 39.9377 79.9368 39.4262 79.9368C38.9147 79.9368 38.5 79.5221 38.5 79.0106V35.8442Z" fill="#FFBA08" stroke="#FFBA08"/>
<path d="M44.5 35.8442C44.5 35.3327 44.9147 34.918 45.4262 34.918C45.9377 34.918 46.3524 35.3326 46.3524 35.8442V79.0106C46.3524 79.5221 45.9377 79.9368 45.4262 79.9368C44.9147 79.9368 44.5 79.5221 44.5 79.0106V35.8442Z" fill="#FFBA08" stroke="#FFBA08"/>
<path d="M51.1102 35.8442C51.1102 35.3327 51.5249 34.918 52.0364 34.918C52.5478 34.918 52.9626 35.3326 52.9626 35.8442V79.0106C52.9626 79.5221 52.5479 79.9368 52.0364 79.9368C51.5249 79.9368 51.1102 79.5221 51.1102 79.0106V35.8442Z" fill="#FFBA08" stroke="#FFBA08"/>
<path d="M59.7799 82.1476V82.6476H60.2799H69.0258C69.5372 82.6476 69.952 83.0624 69.952 83.5738C69.952 84.0853 69.5373 84.5 69.0258 84.5H15.9744C15.4629 84.5 15.0482 84.0853 15.0482 83.5738C15.0482 83.0623 15.4629 82.6476 15.9744 82.6476H24.7203H25.2203V82.1476V31.4706C25.2203 30.9591 25.635 30.5444 26.1465 30.5444H27.7724H28.2724V30.0444V17.0186C28.2724 16.5071 28.6871 16.0924 29.1986 16.0924H31.6459H32.1459V15.5924V5.60909C32.1459 5.0976 32.5606 4.6829 33.0721 4.6829H40.5744C40.5748 4.79685 40.5755 4.89618 40.5768 4.98177C40.5794 5.16097 40.5844 5.32049 40.6035 5.43086C40.6088 5.46162 40.618 5.50679 40.6359 5.55569C40.6496 5.5933 40.6904 5.6976 40.7935 5.78533C40.9339 5.9047 41.1225 5.93773 41.2909 5.88126C41.4147 5.83972 41.4896 5.76238 41.515 5.7351C41.5725 5.6734 41.6124 5.60264 41.629 5.57317L41.629 5.57313C41.6505 5.53493 41.6735 5.49038 41.6938 5.45115L41.6963 5.44642C41.7878 5.26945 41.8938 5.06991 42.0415 4.91131C42.1811 4.76137 42.325 4.6829 42.5001 4.6829L43.5086 4.6829L43.8142 4.6829L43.8973 4.6829H43.9189H43.9244H43.9258H43.9262H43.9263H43.9263H51.9281C52.4396 4.6829 52.8543 5.0976 52.8543 5.60909V15.5924V16.0924H53.3543H55.8017C56.3131 16.0924 56.7278 16.5071 56.7278 17.0186V30.0444V30.5444H57.2278H58.8537C59.3652 30.5444 59.7799 30.9591 59.7799 31.4706V82.1476ZM40.7514 5.09312C40.75 5.09549 40.7493 5.09654 40.7493 5.09646C40.7493 5.09639 40.7501 5.0952 40.7514 5.09312ZM34.4983 6.53527H33.9983L33.9983 7.03528L33.9985 15.5924L33.9985 16.0924H34.4985H35.8341H36.3341V15.5924V10.394C36.3341 9.88254 36.7488 9.46785 37.2603 9.46785C37.7718 9.46785 38.1865 9.88254 38.1865 10.394V15.5924V16.0924H38.6865H41.0739H41.5739V15.5924V10.394C41.5739 9.88254 41.9886 9.46785 42.5001 9.46785C43.0116 9.46785 43.4263 9.88254 43.4263 10.394V15.5924V16.0924H43.9263H46.3139H46.8139V15.5924V10.394C46.8139 9.88254 47.2286 9.46785 47.7401 9.46785C48.2516 9.46785 48.6663 9.88254 48.6663 10.394V15.5924V16.0924H49.1663H50.502H51.002V15.5924V7.03527V6.53527H50.502H34.4983ZM30.6247 17.9447H30.1247V18.4447V30.0444V30.5444H30.6247H33.2141H33.7141V30.0444V20.6949C33.7141 20.1834 34.1288 19.7687 34.6403 19.7687C35.1518 19.7687 35.5665 20.1834 35.5665 20.6949V30.0444V30.5444H36.0665H38.4539H38.9539V30.0444V20.6949C38.9539 20.1834 39.3686 19.7687 39.8801 19.7687C40.3916 19.7687 40.8063 20.1834 40.8063 20.6949V30.0444V30.5444H41.3063H43.6937H44.1937V30.0444V20.6949C44.1937 20.1834 44.6084 19.7687 45.1199 19.7687C45.6314 19.7687 46.0461 20.1834 46.0461 20.6949V30.0444V30.5444H46.5461H48.9337H49.4337V30.0444V20.6949C49.4337 20.1834 49.8484 19.7687 50.3599 19.7687C50.8714 19.7687 51.2861 20.1834 51.2861 20.6949V30.0444V30.5444H51.7861H54.3755H54.8755V30.0444V18.4447V17.9447H54.3755H30.6247ZM27.0727 82.1476V82.6476H27.5727H57.4275H57.9275V82.1476V32.8967V32.3967H57.4275H27.5727H27.0727V32.8967V82.1476Z" fill="#FFBA08" stroke="#FFBA08"/>
</svg>
