<svg width="85" height="85" viewBox="0 0 85 85" fill="none" xmlns="http://www.w3.org/2000/svg">
<g clip-path="url(#clip0)">
<path d="M49.6517 15.2608L50.0724 15.2608L50.1444 14.8463C51.5566 6.71304 58.673 0.5 67.1918 0.5C76.7353 0.5 84.5 8.26471 84.5 17.8082C84.5 27.3517 76.7353 35.1164 67.1918 35.1164C63.404 35.1164 59.8276 33.9138 56.8622 31.6929L56.5223 31.4383L56.2161 31.7326L40.2077 47.115L40.0542 47.2625V47.4755V79.0142V79.5142H40.5542H50.5868C51.9631 79.5142 53.0795 80.6306 53.0795 82.0073C53.0795 83.3839 51.9631 84.5003 50.5868 84.5003H24.5364C23.1597 84.5003 22.0434 83.3839 22.0434 82.0073C22.0434 80.6306 23.1597 79.5142 24.5364 79.5142H34.5687H35.0687V79.0142V47.4752V47.2623L34.9151 47.1147L6.23012 19.5513C6.23009 19.5513 6.23007 19.5512 6.23004 19.5512C5.49673 18.8462 5.26489 17.7663 5.64481 16.8227C6.02481 15.8789 6.93995 15.2608 7.95738 15.2608H20.3516H21.5674L20.7034 14.4055L12.3934 6.17905L16.3455 3.07576L28.5085 15.1159L28.6546 15.2605L28.8602 15.2605L49.6517 15.2608ZM76.5425 24.9025L76.9649 25.3249L77.3063 24.8348C78.299 23.4099 78.9976 21.7664 79.3166 19.9916L79.4223 19.4032H78.8245H72.25H71.0428L71.8964 20.2567L76.5425 24.9025ZM68.787 12.75V13.9572L69.6406 13.1035L74.2864 8.45745L74.7087 8.03508L74.2186 7.69365C72.7938 6.70099 71.1503 6.00209 69.3754 5.68339L68.787 5.57775V6.17552V12.75ZM64.7433 13.1036L65.5969 13.9571V12.75V6.1761V5.57802L65.0082 5.68401C63.235 6.00333 61.5921 6.70315 60.1676 7.69666L59.6779 8.03818L60.1001 8.46032L64.7433 13.1036ZM69.6406 22.5126L68.787 21.659V22.8661V29.4403V30.0381L69.3754 29.9325C71.1503 29.6138 72.7938 28.9149 74.2186 27.9222L74.7087 27.5808L74.2864 27.1584L69.6406 22.5126ZM71.8964 15.3594L71.0429 16.213H72.25H78.8242H79.422L79.3163 15.6246C78.9976 13.8497 78.2987 12.2062 77.3061 10.7814L76.9646 10.2913L76.5423 10.7136L71.8964 15.3594ZM57.8442 10.7165L57.422 10.2943L57.0805 10.7841C56.2757 11.9383 55.6622 13.2358 55.2885 14.6315L55.12 15.2608H55.7715H61.1814H62.3885L61.535 14.4073L57.8442 10.7165ZM60.078 21.1071L60.9735 20.2466L59.7316 20.2466L15.3916 20.2463L14.1496 20.2463L15.0452 21.1068L37.2156 42.4101L37.562 42.743L37.9084 42.4101L60.078 21.1071ZM65.5969 23.8927V22.7188L64.7504 23.5322L60.6195 27.5017L60.1564 27.9468L60.7014 28.2866C62.0187 29.1078 63.4756 29.6632 65.0095 29.9355L65.5969 30.0398V29.4432V23.8927Z" fill="#FFBA08" stroke="#FFBA08"/>
</g>
<defs>
<clipPath id="clip0">
<rect width="85" height="85" fill="white"/>
</clipPath>
</defs>
</svg>
