<svg width="85" height="85" viewBox="0 0 85 85" fill="none" xmlns="http://www.w3.org/2000/svg">
<g clip-path="url(#clip0)">
<path d="M79.6756 64.7451V65.1631L80.0869 65.2372C82.5925 65.6888 84.5 67.8815 84.5 70.5126V75.7637C84.5 76.6459 83.7847 77.361 82.9027 77.361H78.0784H6.92161H2.09725C1.2153 77.361 0.5 76.6459 0.5 75.7637V70.5126C0.5 67.8814 2.40715 65.6889 4.91298 65.2376L5.32437 65.1635V64.7455V61.3773C5.32437 58.577 7.53228 56.2864 10.2996 56.1428L10.7737 56.1182V55.6434V28.1786V27.6786H10.2737H6.92161C6.03967 27.6786 5.32437 26.9635 5.32437 26.0814V17.0621C5.32437 16.3122 5.84617 15.6632 6.57845 15.5022L6.57847 15.5022L42.1569 7.67629L42.157 7.67626C42.3829 7.62651 42.6167 7.62648 42.8431 7.67628L42.9505 7.18805L42.8432 7.67629L78.4215 15.5018L78.5289 15.0135L78.4216 15.5018C79.1538 15.6629 79.6756 16.3119 79.6756 17.0618V26.0814C79.6756 26.9635 78.9603 27.6786 78.0784 27.6786H74.7263H74.2263V28.1786V55.6431V56.1178L74.7003 56.1424C77.4677 56.2864 79.6756 58.577 79.6756 61.377V64.7451ZM75.9811 65.1469H76.4811V64.6469V61.377C76.4811 60.2438 75.56 59.3226 74.4267 59.3226H10.5733C9.44005 59.3226 8.51886 60.2438 8.51886 61.377V64.6469V65.1469H9.01886H75.9811ZM20.4384 56.1281H20.9384V55.6281V28.79V28.29H20.4384H14.4682H13.9682V28.79V55.6281V56.1281H14.4682H20.4384ZM44.1692 28.1786V27.6786H43.6692H41.3311H40.8311V28.1786V55.6281V56.1281H41.3311H43.6692H44.1692V55.6281V28.1786ZM53.8342 56.1281H54.3342V55.6281V28.79V28.29H53.8342H47.8637H47.3637V28.79V55.6281V56.1281H47.8637H53.8342ZM70.5318 56.1281H71.0318V55.6281V28.79V28.29H70.5318H64.5616H64.0616V28.79V55.6281V56.1281H64.5616H70.5318ZM37.6363 28.79V28.29H37.1363H31.1658H30.6658V28.79V55.6281V56.1281H31.1658H37.1363H37.6363V55.6281V28.79ZM80.8048 74.1665H81.3048V73.6665V70.5126C81.3048 69.3155 80.3316 68.3418 79.134 68.3418H78.078H75.9808H9.01851H6.92126H5.8653C4.66818 68.3418 3.69449 69.315 3.69449 70.5126V73.6665V74.1665H4.19449H9.01886H75.9804H80.8048ZM60.3671 56.1281H60.8671V55.6281V28.1786V27.6786H60.3671H58.0287H57.5287V28.1786V55.6281V56.1281H58.0287H60.3671ZM8.91145 18.2597L8.51886 18.346V18.748V23.9838V24.4838H9.01886H75.9811H76.4811V23.9838V18.748V18.346L76.0886 18.2597L42.6074 10.8952L42.5 10.8716L42.3926 10.8952L8.91145 18.2597ZM27.4713 28.1786V27.6786H26.9713H24.6329H24.1329V28.1786V55.6281V56.1281H24.6329H26.9713H27.4713V55.6281V28.1786Z" fill="#FFBA08" stroke="#FFBA08"/>
</g>
<defs>
<clipPath id="clip0">
<rect width="85" height="85" fill="white"/>
</clipPath>
</defs>
</svg>
