<svg width="85" height="85" viewBox="0 0 85 85" fill="none" xmlns="http://www.w3.org/2000/svg">
<path d="M36.1287 78.1825L35.9201 78.8348H36.6049H81.7033C83.0101 78.8348 84.0701 79.8946 84.0701 81.2016C84.0701 82.5087 83.0104 83.5684 81.7033 83.5684H2.86682C1.55973 83.5684 0.5 82.5087 0.5 81.2016C0.5 79.8945 1.55973 78.8348 2.86682 78.8348H10.1233H10.8082L10.5995 78.1825C8.17328 70.5965 6.8066 60.7584 6.8066 50.4554C6.8066 27.6994 20.912 9.53632 21.5053 8.78379C21.9542 8.21431 22.6392 7.88211 23.3641 7.88211C24.089 7.88211 24.774 8.21431 25.223 8.78379C25.8162 9.53633 39.9216 27.6992 39.9216 50.4554C39.9216 60.7584 38.5547 70.5965 36.1287 78.1825ZM30.5499 78.8348H30.8998L31.0197 78.5061C33.6865 71.1933 35.188 61.1132 35.188 50.4554C35.188 38.0963 30.5369 26.987 26.6701 19.8814L25.7309 20.1204V78.3348V78.8348H26.2309H30.5499ZM20.9976 20.1204L20.0584 19.8814C16.1919 26.9865 11.5405 38.0957 11.5405 50.4554C11.5405 61.1132 13.042 71.1933 15.7089 78.5061L15.8288 78.8348H16.1786H20.4976H20.9976V78.3348V20.1204Z" fill="#FFBA08" stroke="#FFBA08"/>
<path d="M62.9258 10.1731C70.0014 10.1731 75.7585 15.9302 75.7585 23.0058C75.7585 30.0815 70.0014 35.8385 62.9258 35.8385C55.8502 35.8385 50.0931 30.0815 50.0931 23.0058C50.0931 15.9302 55.8502 10.1731 62.9258 10.1731ZM54.8265 23.0058C54.8265 27.4721 58.4595 31.1052 62.9258 31.1052C67.3921 31.1052 71.0251 27.4721 71.0251 23.0058C71.0251 18.5395 67.3921 14.9065 62.9258 14.9065C58.4595 14.9065 54.8265 18.5395 54.8265 23.0058Z" fill="#FFBA08" stroke="#FFBA08"/>
<path d="M65.2925 6.17633C65.2925 7.48342 64.2328 8.54315 62.9257 8.54315C61.6186 8.54315 60.5589 7.48342 60.5589 6.17633V3.79776C60.5589 2.49067 61.6186 1.43095 62.9257 1.43095C64.2328 1.43095 65.2925 2.49067 65.2925 3.79776V6.17633Z" fill="#FFBA08" stroke="#FFBA08"/>
<path d="M60.5589 39.8347V42.2132C60.5589 43.5203 61.6186 44.58 62.9257 44.58C64.2328 44.58 65.2925 43.5203 65.2925 42.2132V39.8347C65.2925 38.5276 64.2329 37.4679 62.9258 37.4678L60.5589 39.8347ZM60.5589 39.8347C60.5589 38.5279 61.6186 37.4681 62.9257 37.4678L60.5589 39.8347Z" fill="#FFBA08" stroke="#FFBA08"/>
<path d="M79.7546 25.3726C78.4475 25.3726 77.3878 24.3129 77.3878 23.0058C77.3878 21.699 78.4478 20.639 79.7546 20.639H82.1332C83.4402 20.639 84.5 21.6987 84.5 23.0058C84.5 24.3129 83.4402 25.3726 82.1332 25.3726H79.7546Z" fill="#FFBA08" stroke="#FFBA08"/>
<path d="M46.0969 25.3726H43.7183C42.4113 25.3726 41.3515 24.3129 41.3515 23.0058C41.3515 21.6987 42.4113 20.639 43.7183 20.639H46.0969C47.404 20.639 48.4637 21.6987 48.4637 23.0058C48.4637 24.3129 47.404 25.3726 46.0969 25.3726Z" fill="#FFBA08" stroke="#FFBA08"/>
<path d="M73.1518 12.7796L73.1519 12.7797C73.6142 13.2419 74.2189 13.4729 74.8255 13.4729C75.432 13.4729 76.0367 13.2419 76.499 12.7797L78.181 11.0977C79.1053 10.1733 79.1053 8.67466 78.1811 7.75064L73.1518 12.7796ZM73.1518 12.7796C72.2276 11.8556 72.2275 10.3569 73.1519 9.43252L74.8338 7.7506C74.8338 7.75058 74.8338 7.75057 74.8339 7.75055M73.1518 12.7796L74.8339 7.75055M74.8339 7.75055C75.7582 6.82653 77.2564 6.82647 78.181 7.7506L74.8339 7.75055Z" fill="#FFBA08" stroke="#FFBA08"/>
<path d="M47.6705 34.9139L49.3524 33.232C49.3524 33.232 49.3525 33.232 49.3525 33.2319C50.2772 32.3078 51.7754 32.3079 52.6997 33.232C53.6239 34.156 53.624 35.6547 52.6996 36.5791L51.0177 38.2611C50.5554 38.7233 49.9507 38.9543 49.3441 38.9543C48.7376 38.9543 48.1329 38.7231 47.6705 38.261C46.7462 37.337 46.7462 35.8383 47.6705 34.9139Z" fill="#FFBA08" stroke="#FFBA08"/>
<path d="M78.181 34.914L78.181 34.9139L76.4991 33.232C76.4991 33.232 76.4991 33.232 76.499 33.2319C75.5744 32.3079 74.0762 32.3079 73.1519 33.2319C73.1519 33.232 73.1519 33.232 73.1518 33.232M78.181 34.914L72.7983 32.8784L73.1518 33.232M78.181 34.914C79.1053 35.838 79.1053 37.3367 78.181 38.2611C77.7187 38.7233 77.114 38.9543 76.5074 38.9543C75.901 38.9543 75.2962 38.7232 74.8339 38.2611C74.8338 38.261 74.8338 38.261 74.8338 38.261L73.1519 36.5791L73.1518 36.579C72.2276 35.655 72.2275 34.1564 73.1518 33.232M78.181 34.914L73.1518 33.232" fill="#FFBA08" stroke="#FFBA08"/>
<path d="M52.6997 9.43286L52.6996 9.43281L51.0177 7.75093C51.0177 7.7509 51.0177 7.75087 51.0177 7.75084C50.093 6.82675 48.5948 6.82683 47.6705 7.75084C47.6705 7.75085 47.6705 7.75087 47.6705 7.75089M52.6997 9.43286L47.6705 7.75089M52.6997 9.43286C53.6239 10.3569 53.624 11.8556 52.6996 12.7799C52.2373 13.2422 51.6326 13.4732 51.0261 13.4732C50.4196 13.4732 49.8149 13.242 49.3525 12.7799C49.3525 12.7799 49.3524 12.7799 49.3524 12.7799L47.6705 11.098L47.6705 11.0979C46.7462 10.1739 46.7462 8.67525 47.6705 7.75089M52.6997 9.43286L47.6705 7.75089" fill="#FFBA08" stroke="#FFBA08"/>
</svg>
